<?xml version="1.0" encoding="utf-8"?>
<!-- Generator: Adobe Illustrator 27.3.1, SVG Export Plug-In . SVG Version: 6.00 Build 0)  -->
<svg version="1.1" xmlns="http://www.w3.org/2000/svg" xmlns:xlink="http://www.w3.org/1999/xlink" x="0px" y="0px"
	 viewBox="0 0 334.55 71.05" style="enable-background:new 0 0 334.55 71.05;" xml:space="preserve">
<style type="text/css">
	.st0{opacity:0.8;fill:url(#SVGID_1_);}
	.st1{fill:#5365C6;}
	.st2{fill:none;stroke:#00142B;stroke-width:3.1847;stroke-miterlimit:10;}
	.st3{fill:#00142B;}
	.st4{fill:none;}
	.st5{display:none;fill:#DDB91D;}
	.st6{display:none;fill:#FFC736;}
	.st7{fill:#FFC736;}
	.st8{fill:#2D4FA1;}
	.st9{fill:#242524;}
	.st10{fill:#DD9A05;}
	.st11{fill:#3B3B3B;}
	.st12{fill:#FFFFFF;}
	.st13{fill:#F2A306;}
	.st14{display:none;fill:#2D4FA1;}
	.st15{display:none;fill:#FFFFFF;}
	.st16{display:none;fill:#DD9A05;}
</style>
<g id="BACKGROUND">
</g>
<g id="OBJECTS">
	<g>
		<g>
			<path class="st8" d="M20.79,40.51l-2.76,2.37c-0.92-2.27-1.43-4.76-1.43-7.35c0-0.57,0.02-1.14,0.07-1.69
				c1.55-0.65,3.4-0.26,4.54,1.07C22.65,36.57,22.46,39.08,20.79,40.51z"/>
			<g>
				<polygon class="st8" points="58.85,5.49 58.06,4.56 52.34,11.08 				"/>
				<path class="st8" d="M19,27.75c0,0,3.87,2.44,4.67,3.38l-3.1-3.62L19,27.75z"/>
				<path class="st8" d="M31.3,34.33l-2.74,2.35c-0.14,0.12-0.24,0.28-0.29,0.45c-0.02,0.06-1.73,5.45-6.31,9.39l-1.22,1.05
					c-0.2-0.26-0.39-0.52-0.57-0.78l1.17-1c4.33-3.72,6-8.89,6.02-8.94c0.11-0.35,0.31-0.66,0.59-0.89l2-1.72l0.36-1.07L31.3,34.33z
					"/>
				<path class="st8" d="M56.55,1.7l-7.06,6.06l-3.3,3.74l-2.92,3.31l-2.01,1.72l-10.75,9.23l-1.47-1.71l-3.41,2.22l-2.14-2.49
					l-3.46,2.97c0,0-0.58,0.08-1.53,0.34c-0.89,1.87-1.49,3.89-1.76,6.03c1.73-0.58,3.71-0.09,4.96,1.37
					c1.66,1.94,1.43,4.85-0.5,6.51l-2.91,2.5c0.52,1.16,1.14,2.26,1.87,3.29l1.17-1c4.33-3.72,6-8.89,6.02-8.94
					c0.11-0.35,0.31-0.66,0.59-0.89l2-1.72l0.36-1.07l1.01,1.17l-2.74,2.35c-0.14,0.12-0.24,0.28-0.29,0.45
					c-0.02,0.06-1.73,5.45-6.31,9.39l-1.22,1.05c0.2,0.26,0.4,0.51,0.61,0.75l1.25-1.07c4.86-4.17,6.6-9.84,6.6-9.84l3.46-2.97
					l-6.4-7.46l4.68,4.51l2.3-2.58l-2.3-2.68l1.66,1.16l12.38-10.63l7.9-5.09l7.06-6.06L56.55,1.7z M23.59,31.04
					c-0.03-0.04-0.06-0.07-0.1-0.1c-0.04-0.04-0.07-0.07-0.12-0.11c-0.12-0.11-0.27-0.23-0.43-0.36c-0.53-0.43-1.24-0.93-1.91-1.38
					c-0.11-0.07-0.21-0.14-0.32-0.21c-0.89-0.6-1.65-1.08-1.72-1.12c0,0,0,0,0,0l1.39-0.21l0.18-0.03h0l1.67,1.95L23.59,31.04
					l0.04,0.04L23.59,31.04z M52.35,11.06l-0.01,0.01L54.16,9l3.9-4.44l0.79,0.92L52.35,11.06z"/>
			</g>
		</g>
		<path class="st8" d="M36.24,57.27c0.32,0,0.65-0.01,0.96-0.02l-4.42,3.79c-1.8-0.98-3.52-2.13-5.17-3.45l1.69-1.45
			C31.49,56.87,33.82,57.27,36.24,57.27z"/>
		<path class="st9" d="M53.89,42.93L40.07,54.79c-1.26,0.25-2.54,0.38-3.83,0.38c-1.74,0-3.42-0.23-5.03-0.66l18.78-16.12
			c1.25-1.07,3.14-0.92,4.22,0.33C55.28,39.97,55.13,41.86,53.89,42.93z"/>
		<path class="st9" d="M84.26,22.76l-9.54,8.19l-6.98-3.85l-2.76-7.49l9.54-8.19c-4.94-1.76-10.65-0.89-14.91,2.76
			c-4.71,4.05-6.32,10.37-4.58,15.95L27.99,53.35c0.76,0.35,1.55,0.66,2.36,0.92l19.15-16.44c1.56-1.34,3.92-1.16,5.26,0.41
			c1.34,1.56,1.17,3.92-0.39,5.26L41.67,54.41c0.01,0,0.02,0,0.02-0.01l1.57-0.46l0.79,1.35l17.56-15.07
			c-4.92-3.19-5.76-7.84-5.79-8.07c0.56,1.16,1.28,2.29,2.17,3.32c1.41,1.65,3.11,2.91,4.96,3.79c0.06,0.03,0.12,0.06,0.18,0.09
			c0.11,0.05,0.22,0.1,0.34,0.15c0.05,0.02,0.11,0.05,0.15,0.07c0.13,0.06,0.25,0.1,0.38,0.15c0.04,0.01,0.09,0.03,0.13,0.05
			c0.14,0.05,0.27,0.1,0.41,0.15c0.04,0.01,0.07,0.02,0.11,0.04c0.14,0.05,0.29,0.09,0.43,0.14c0.02,0.01,0.06,0.02,0.09,0.02
			c0.15,0.05,0.31,0.09,0.46,0.13c4.63,1.2,9.74,0.2,13.65-3.15C83.53,33.42,85.25,27.91,84.26,22.76z M55.62,24.85
			c0.21-3.7,1.89-7.23,4.81-9.73c3.18-2.73,7.43-3.84,11.5-3.11c-3.08-0.01-8.49,1.83-10.86,3.86
			C58.31,18.25,56.36,21.11,55.62,24.85z M79.28,35.52c-0.31,0.34-0.63,0.68-0.98,0.98c-0.34,0.31-0.69,0.62-1.08,0.88
			c-1.51,1.09-3.27,1.87-5.12,2.22c-1.84,0.34-3.77,0.34-5.58-0.11c-1.81-0.45-3.52-1.28-4.92-2.45c1.63,0.82,3.33,1.4,5.07,1.69
			c0.22,0.05,0.44,0.05,0.66,0.08c0.22,0.02,0.44,0.05,0.65,0.07l0.66,0.03l0.33,0.01l0.32-0.01c0.22-0.01,0.44-0.01,0.66-0.02
			c0.22-0.01,0.43-0.04,0.65-0.06c0.22-0.03,0.43-0.03,0.66-0.08l0.65-0.11c0.22-0.03,0.43-0.08,0.64-0.14l0.63-0.16
			c0.21-0.06,0.42-0.13,0.63-0.2c0.21-0.08,0.42-0.13,0.62-0.23c0.4-0.17,0.82-0.31,1.2-0.53l0.59-0.3
			c0.19-0.11,0.39-0.22,0.57-0.34c0.18-0.12,0.39-0.22,0.56-0.35c0.18-0.13,0.36-0.26,0.54-0.38c0.37-0.25,0.72-0.53,1.06-0.82
			c0.68-0.58,1.3-1.23,1.9-1.92C80.43,34.07,79.89,34.82,79.28,35.52z"/>
		<path class="st10" d="M48.41,66.88l0.04,2.62c-3.1,0.83-2.68,0.72-5.78,1.55l-2.47-4.43c-1.72-3.1-6.19-3.1-7.91,0l-2.47,4.43
			c-3.1-0.83-2.68-0.72-5.78-1.55l0.08-5.07c0.06-3.55-3.81-5.78-6.85-3.96l-4.35,2.61c-2.27-2.27-1.96-1.96-4.24-4.24l2.61-4.35
			c1.82-3.04-0.41-6.91-3.96-6.85l-5.07,0.08c-0.83-3.1-0.72-2.68-1.55-5.78l4.43-2.47c3.1-1.72,3.1-6.19,0-7.91l-4.43-2.47
			c0.83-3.1,0.72-2.68,1.55-5.78l5.07,0.08c3.55,0.06,5.78-3.81,3.96-6.85L8.69,12.2c2.27-2.27,1.96-1.96,4.24-4.24l4.35,2.61
			c3.04,1.82,6.91-0.41,6.85-3.96l-0.08-5.07c3.1-0.83,2.68-0.72,5.78-1.55l2.47,4.43c1.72,3.1,6.19,3.1,7.91,0L42.66,0
			c3.1,0.83,2.68,0.72,5.78,1.55l-0.06,3.9l-5.46,6.74l0,0.05l-1.7,2.12c-1.6-0.38-3.27-0.58-4.98-0.58
			c-9.34,0-17.31,5.89-20.39,14.17c-0.77,2.08-1.24,4.31-1.34,6.63c-0.01,0.32-0.02,0.63-0.02,0.95c0,8.41,4.77,15.7,11.75,19.32
			c0.73,0.38,1.48,0.72,2.26,1.01c0.26,0.1,0.53,0.2,0.8,0.29c2.17,0.73,4.51,1.13,6.93,1.13c0.32,0,0.65-0.01,0.96-0.02
			c0.42-0.01,0.84-0.05,1.26-0.09c1.31-0.13,2.58-0.39,3.82-0.74l0.16,0.27l5.96,10.18L48.41,66.88z"/>
	</g>
	<g>
		<path class="st8" d="M93.63,16.59h3.89v14.57c0,2.32-0.17,3.95-0.51,4.88c-0.34,0.94-0.91,1.68-1.69,2.23
			c-0.78,0.55-1.73,0.83-2.82,0.83c-2.24,0-4.15-1.06-5.73-3.18l2.8-2.82c0.62,0.76,1.14,1.26,1.58,1.52
			c0.43,0.26,0.85,0.39,1.26,0.39c0.42,0,0.72-0.19,0.93-0.57s0.3-1.21,0.3-2.49V16.59z"/>
		<path class="st8" d="M112.87,22.31h3.78v16.24h-3.78v-1.72c-0.74,0.76-1.48,1.3-2.22,1.63s-1.55,0.5-2.41,0.5
			c-1.95,0-3.63-0.81-5.05-2.44s-2.13-3.65-2.13-6.07c0-2.51,0.69-4.56,2.06-6.16c1.37-1.6,3.04-2.4,5.01-2.4
			c0.9,0,1.75,0.18,2.54,0.55s1.53,0.92,2.2,1.66V22.31z M108.9,25.65c-1.17,0-2.14,0.45-2.91,1.34c-0.77,0.89-1.16,2.03-1.16,3.43
			c0,1.4,0.39,2.56,1.18,3.46c0.79,0.91,1.75,1.36,2.9,1.36c1.19,0,2.17-0.45,2.95-1.34c0.78-0.89,1.17-2.06,1.17-3.5
			c0-1.41-0.39-2.56-1.17-3.43C111.08,26.09,110.09,25.65,108.9,25.65z"/>
		<path class="st8" d="M131.59,16.04h3.78v22.51h-3.78v-1.72c-0.74,0.76-1.48,1.3-2.22,1.63s-1.55,0.5-2.41,0.5
			c-1.95,0-3.63-0.81-5.05-2.44s-2.13-3.65-2.13-6.07c0-2.51,0.69-4.56,2.06-6.16c1.37-1.6,3.04-2.4,5.01-2.4
			c0.9,0,1.75,0.18,2.54,0.55s1.53,0.92,2.2,1.66V16.04z M127.62,25.65c-1.17,0-2.14,0.45-2.91,1.34c-0.77,0.89-1.16,2.03-1.16,3.43
			c0,1.4,0.39,2.56,1.18,3.46c0.79,0.91,1.75,1.36,2.9,1.36c1.19,0,2.17-0.45,2.95-1.34c0.78-0.89,1.17-2.06,1.17-3.5
			c0-1.41-0.39-2.56-1.17-3.43C129.8,26.09,128.81,25.65,127.62,25.65z"/>
		<path class="st8" d="M154.28,31.6h-12.14c0.18,1.15,0.64,2.07,1.41,2.75s1.73,1.02,2.91,1.02c1.41,0,2.63-0.53,3.64-1.6l3.18,1.61
			c-0.79,1.21-1.74,2.11-2.85,2.69c-1.11,0.58-2.42,0.87-3.95,0.87c-2.36,0-4.29-0.8-5.77-2.41c-1.49-1.61-2.23-3.62-2.23-6.04
			c0-2.48,0.74-4.54,2.22-6.17s3.34-2.46,5.57-2.46c2.37,0,4.3,0.82,5.79,2.46s2.23,3.8,2.23,6.49L154.28,31.6z M150.5,28.4
			c-0.25-0.91-0.74-1.64-1.48-2.21c-0.74-0.57-1.59-0.85-2.56-0.85c-1.05,0-1.98,0.32-2.77,0.96c-0.5,0.4-0.96,1.1-1.39,2.1H150.5z"
			/>
		<path class="st8" d="M172.43,31.6h-12.14c0.18,1.15,0.64,2.07,1.41,2.75s1.73,1.02,2.91,1.02c1.41,0,2.63-0.53,3.64-1.6l3.18,1.61
			c-0.79,1.21-1.74,2.11-2.85,2.69c-1.11,0.58-2.42,0.87-3.95,0.87c-2.36,0-4.29-0.8-5.77-2.41c-1.49-1.61-2.23-3.62-2.23-6.04
			c0-2.48,0.74-4.54,2.22-6.17s3.34-2.46,5.57-2.46c2.37,0,4.3,0.82,5.79,2.46s2.23,3.8,2.23,6.49L172.43,31.6z M168.65,28.4
			c-0.25-0.91-0.74-1.64-1.48-2.21c-0.74-0.57-1.59-0.85-2.56-0.85c-1.05,0-1.98,0.32-2.77,0.96c-0.5,0.4-0.96,1.1-1.39,2.1H168.65z
			"/>
		<path class="st8" d="M186.61,16.04h3.78v22.51h-3.78v-1.72c-0.74,0.76-1.48,1.3-2.22,1.63s-1.55,0.5-2.41,0.5
			c-1.95,0-3.63-0.81-5.05-2.44s-2.13-3.65-2.13-6.07c0-2.51,0.69-4.56,2.06-6.16c1.37-1.6,3.04-2.4,5.01-2.4
			c0.9,0,1.75,0.18,2.54,0.55s1.53,0.92,2.2,1.66V16.04z M182.64,25.65c-1.17,0-2.14,0.45-2.91,1.34c-0.77,0.89-1.16,2.03-1.16,3.43
			c0,1.4,0.39,2.56,1.18,3.46c0.79,0.91,1.75,1.36,2.9,1.36c1.19,0,2.17-0.45,2.95-1.34c0.78-0.89,1.17-2.06,1.17-3.5
			c0-1.41-0.39-2.56-1.17-3.43C184.82,26.09,183.83,25.65,182.64,25.65z"/>
		<path class="st10" d="M201.01,16.59h3.81l2.94,14.02l3.64-14.02h3.22l3.69,14.02l2.91-14.02h3.81l-4.59,21.96h-3.72l-3.75-14.19
			l-3.68,14.19h-3.68L201.01,16.59z"/>
		<path class="st10" d="M234.73,21.89c1.42,0,2.76,0.38,4.01,1.15c1.25,0.77,2.23,1.81,2.93,3.12c0.7,1.31,1.05,2.73,1.05,4.25
			c0,1.53-0.35,2.97-1.06,4.3s-1.67,2.38-2.89,3.13c-1.22,0.75-2.56,1.13-4.03,1.13c-2.16,0-4-0.83-5.53-2.49
			c-1.53-1.66-2.29-3.67-2.29-6.04c0-2.54,0.86-4.65,2.59-6.34C231.03,22.62,232.77,21.89,234.73,21.89z M234.8,25.72
			c-1.17,0-2.15,0.44-2.93,1.32c-0.78,0.88-1.17,2.01-1.17,3.38c0,1.41,0.39,2.56,1.16,3.43c0.77,0.88,1.75,1.31,2.93,1.31
			c1.18,0,2.17-0.44,2.95-1.33c0.79-0.88,1.18-2.02,1.18-3.42c0-1.39-0.39-2.52-1.16-3.4C236.98,26.16,236,25.72,234.8,25.72z"/>
		<path class="st10" d="M244.92,22.31h3.24v2.04c0.35-0.81,0.82-1.42,1.4-1.84c0.58-0.42,1.22-0.63,1.91-0.63
			c0.49,0,1,0.14,1.54,0.42l-1.18,3.51c-0.44-0.24-0.81-0.36-1.09-0.36c-0.58,0-1.07,0.39-1.47,1.16s-0.6,2.3-0.6,4.57l0.01,0.79
			v6.57h-3.75V22.31z"/>
		<path class="st10" d="M254.91,16.04h3.78V29l5.57-6.7H269l-6.49,7.78l7.27,8.46h-4.69l-6.4-7.48v7.48h-3.78V16.04z"/>
		<path class="st10" d="M280.55,24.57l-2.34,2.52c-0.95-1.01-1.81-1.52-2.59-1.52c-0.42,0-0.76,0.1-1,0.29
			c-0.24,0.19-0.36,0.44-0.36,0.72c0,0.22,0.08,0.42,0.23,0.6c0.15,0.18,0.53,0.44,1.13,0.75l1.38,0.75c1.46,0.78,2.46,1.57,3,2.37
			c0.54,0.81,0.82,1.75,0.82,2.84c0,1.44-0.49,2.65-1.47,3.61c-0.98,0.97-2.3,1.45-3.95,1.45c-2.2,0-3.95-0.93-5.26-2.78l2.33-2.73
			c0.44,0.56,0.96,1.01,1.56,1.35c0.6,0.34,1.12,0.52,1.58,0.52c0.5,0,0.9-0.13,1.21-0.39s0.46-0.56,0.46-0.9
			c0-0.63-0.55-1.24-1.65-1.84l-1.27-0.69c-2.44-1.32-3.66-2.98-3.66-4.97c0-1.28,0.46-2.38,1.38-3.29
			c0.92-0.91,2.09-1.37,3.52-1.37c0.98,0,1.9,0.23,2.76,0.69C279.22,23.04,279.95,23.71,280.55,24.57z"/>
		<path class="st10" d="M283.81,16.04h3.75v7.91c0.74-0.69,1.48-1.2,2.23-1.54c0.75-0.34,1.5-0.51,2.27-0.51
			c1.5,0,2.76,0.56,3.78,1.67c0.88,0.96,1.31,2.38,1.31,4.25v10.73h-3.72v-7.12c0-1.88-0.08-3.15-0.25-3.82
			c-0.17-0.67-0.45-1.17-0.85-1.49s-0.9-0.49-1.49-0.49c-0.77,0-1.42,0.27-1.97,0.82c-0.55,0.55-0.93,1.29-1.14,2.24
			c-0.11,0.49-0.17,1.6-0.17,3.34v6.52h-3.75V16.04z"/>
		<path class="st10" d="M307.89,21.89c1.42,0,2.76,0.38,4.01,1.15c1.25,0.77,2.23,1.81,2.93,3.12c0.7,1.31,1.05,2.73,1.05,4.25
			c0,1.53-0.35,2.97-1.06,4.3s-1.67,2.38-2.89,3.13c-1.22,0.75-2.56,1.13-4.03,1.13c-2.16,0-4-0.83-5.53-2.49
			c-1.53-1.66-2.29-3.67-2.29-6.04c0-2.54,0.86-4.65,2.59-6.34C304.18,22.62,305.92,21.89,307.89,21.89z M307.95,25.72
			c-1.17,0-2.15,0.44-2.93,1.32c-0.78,0.88-1.17,2.01-1.17,3.38c0,1.41,0.39,2.56,1.16,3.43c0.77,0.88,1.75,1.31,2.93,1.31
			c1.18,0,2.17-0.44,2.95-1.33c0.79-0.88,1.18-2.02,1.18-3.42c0-1.39-0.39-2.52-1.16-3.4C310.14,26.16,309.15,25.72,307.95,25.72z"
			/>
		<path class="st10" d="M322.72,22.31v1.79c0.68-0.74,1.42-1.29,2.22-1.66s1.64-0.55,2.55-0.55c1.97,0,3.64,0.8,5.01,2.4
			c1.38,1.6,2.06,3.66,2.06,6.16c0,2.42-0.71,4.44-2.13,6.07c-1.42,1.63-3.11,2.44-5.05,2.44c-0.87,0-1.67-0.17-2.42-0.5
			s-1.49-0.88-2.23-1.63v7.66h-3.75V22.31H322.72z M326.69,25.65c-1.19,0-2.18,0.44-2.96,1.31c-0.78,0.88-1.18,2.02-1.18,3.43
			c0,1.44,0.39,2.61,1.18,3.5c0.79,0.89,1.77,1.34,2.96,1.34c1.15,0,2.13-0.45,2.92-1.36s1.18-2.06,1.18-3.46
			c0-1.39-0.39-2.54-1.16-3.43C328.85,26.09,327.87,25.65,326.69,25.65z"/>
	</g>
	<g>
		<g>
			<path class="st11" d="M87.68,48.91h1.4l1.28,2.48l1.27-2.48h1.38l-2.01,3.91v2.99H89.7v-2.99L87.68,48.91z"/>
			<path class="st11" d="M99.24,48.74c0.97,0,1.8,0.35,2.5,1.06c0.7,0.71,1.05,1.57,1.05,2.59c0,1.01-0.34,1.86-1.03,2.56
				c-0.69,0.7-1.52,1.05-2.51,1.05c-1.03,0-1.88-0.36-2.57-1.08c-0.68-0.72-1.02-1.57-1.02-2.55c0-0.66,0.16-1.27,0.48-1.82
				c0.32-0.55,0.75-0.99,1.31-1.32C98,48.9,98.6,48.74,99.24,48.74z M99.22,50.03c-0.63,0-1.17,0.22-1.6,0.67
				c-0.43,0.44-0.65,1.01-0.65,1.69c0,0.76,0.27,1.37,0.82,1.81c0.42,0.35,0.91,0.52,1.46,0.52c0.62,0,1.15-0.23,1.58-0.68
				s0.65-1.01,0.65-1.67c0-0.66-0.22-1.21-0.66-1.67S99.85,50.03,99.22,50.03z"/>
			<path class="st11" d="M105.88,48.91h1.31v4.46c0,0.38,0.03,0.66,0.1,0.82c0.07,0.16,0.18,0.29,0.33,0.38
				c0.15,0.1,0.34,0.14,0.56,0.14c0.23,0,0.43-0.05,0.59-0.16c0.17-0.11,0.28-0.24,0.34-0.41s0.1-0.48,0.1-0.94v-4.3h1.31v4.12
				c0,0.69-0.04,1.18-0.12,1.45c-0.08,0.27-0.23,0.53-0.45,0.78c-0.22,0.25-0.47,0.44-0.76,0.56s-0.62,0.18-1,0.18
				c-0.5,0-0.93-0.12-1.3-0.34c-0.37-0.23-0.63-0.52-0.79-0.86c-0.16-0.35-0.24-0.93-0.24-1.75V48.91z"/>
			<path class="st11" d="M114.04,48.91h1.38c0.76,0,1.3,0.07,1.62,0.2c0.32,0.14,0.58,0.36,0.78,0.68c0.2,0.32,0.29,0.69,0.29,1.12
				c0,0.45-0.11,0.83-0.32,1.14s-0.54,0.54-0.98,0.69l1.62,3.07H117l-1.54-2.92h-0.12v2.92h-1.3V48.91z M115.34,51.61h0.41
				c0.42,0,0.7-0.05,0.86-0.17c0.16-0.11,0.23-0.29,0.23-0.55c0-0.15-0.04-0.28-0.12-0.39s-0.18-0.19-0.31-0.24
				s-0.37-0.07-0.72-0.07h-0.36V51.61z"/>
			<path class="st11" d="M129.21,48.74c0.97,0,1.8,0.35,2.5,1.06c0.7,0.71,1.05,1.57,1.05,2.59c0,1.01-0.34,1.86-1.03,2.56
				c-0.69,0.7-1.52,1.05-2.51,1.05c-1.03,0-1.88-0.36-2.57-1.08c-0.68-0.72-1.02-1.57-1.02-2.55c0-0.66,0.16-1.27,0.48-1.82
				c0.32-0.55,0.75-0.99,1.31-1.32C127.97,48.9,128.57,48.74,129.21,48.74z M129.2,50.03c-0.63,0-1.17,0.22-1.6,0.67
				c-0.43,0.44-0.65,1.01-0.65,1.69c0,0.76,0.27,1.37,0.82,1.81c0.42,0.35,0.91,0.52,1.46,0.52c0.62,0,1.15-0.23,1.58-0.68
				s0.65-1.01,0.65-1.67c0-0.66-0.22-1.21-0.66-1.67S129.83,50.03,129.2,50.03z"/>
			<path class="st11" d="M135.9,48.91h1.25l2.93,4.54v-4.54h1.3v6.9h-1.25l-2.93-4.53v4.53h-1.3V48.91z"/>
			<path class="st11" d="M144.88,48.91h3.74v1.29h-2.45v1.25h2.45v1.26h-2.45v1.82h2.45v1.29h-3.74V48.91z"/>
			<path class="st11" d="M151.78,52.68h2.37v1.19h-2.37V52.68z"/>
			<path class="st11" d="M161.26,49.85l-0.97,0.86c-0.34-0.47-0.69-0.71-1.04-0.71c-0.17,0-0.31,0.05-0.42,0.14
				c-0.11,0.09-0.16,0.2-0.16,0.31c0,0.12,0.04,0.23,0.12,0.33c0.11,0.14,0.42,0.43,0.96,0.89c0.5,0.42,0.8,0.68,0.91,0.79
				c0.26,0.27,0.45,0.53,0.56,0.77c0.11,0.25,0.17,0.51,0.17,0.8c0,0.57-0.19,1.03-0.58,1.4c-0.39,0.37-0.9,0.55-1.52,0.55
				c-0.49,0-0.91-0.12-1.28-0.36c-0.36-0.24-0.67-0.62-0.93-1.14l1.1-0.67c0.33,0.61,0.71,0.92,1.14,0.92c0.22,0,0.41-0.07,0.57-0.2
				c0.15-0.13,0.23-0.28,0.23-0.46c0-0.16-0.06-0.31-0.17-0.47c-0.12-0.16-0.37-0.4-0.76-0.72c-0.75-0.61-1.23-1.09-1.45-1.42
				s-0.33-0.67-0.33-1c0-0.48,0.18-0.89,0.54-1.23c0.36-0.34,0.81-0.51,1.34-0.51c0.34,0,0.67,0.08,0.98,0.24
				C160.56,49.14,160.9,49.43,161.26,49.85z"/>
			<path class="st11" d="M163.86,48.91h3.79v1.29h-1.25v5.61h-1.32v-5.61h-1.22V48.91z"/>
			<path class="st11" d="M173.69,48.74c0.97,0,1.8,0.35,2.5,1.06c0.7,0.71,1.05,1.57,1.05,2.59c0,1.01-0.34,1.86-1.03,2.56
				c-0.69,0.7-1.52,1.05-2.51,1.05c-1.03,0-1.88-0.36-2.57-1.08c-0.68-0.72-1.02-1.57-1.02-2.55c0-0.66,0.16-1.27,0.48-1.82
				c0.32-0.55,0.75-0.99,1.31-1.32C172.45,48.9,173.05,48.74,173.69,48.74z M173.68,50.03c-0.63,0-1.17,0.22-1.6,0.67
				c-0.43,0.44-0.65,1.01-0.65,1.69c0,0.76,0.27,1.37,0.82,1.81c0.42,0.35,0.91,0.52,1.46,0.52c0.62,0,1.15-0.23,1.58-0.68
				s0.65-1.01,0.65-1.67c0-0.66-0.22-1.21-0.66-1.67S174.3,50.03,173.68,50.03z"/>
			<path class="st11" d="M180.37,48.91h1.38c0.75,0,1.29,0.07,1.62,0.21c0.33,0.14,0.59,0.36,0.78,0.68s0.29,0.68,0.29,1.12
				c0,0.48-0.12,0.88-0.38,1.2c-0.25,0.32-0.59,0.54-1.02,0.67c-0.25,0.07-0.71,0.11-1.38,0.11v2.92h-1.31V48.91z M181.68,51.61
				h0.41c0.33,0,0.55-0.02,0.68-0.07c0.13-0.05,0.23-0.12,0.3-0.23s0.11-0.24,0.11-0.39c0-0.27-0.1-0.46-0.31-0.58
				c-0.15-0.09-0.43-0.14-0.83-0.14h-0.37V51.61z"/>
			<path class="st11" d="M195.81,49.85l-0.97,0.86c-0.34-0.47-0.69-0.71-1.04-0.71c-0.17,0-0.31,0.05-0.42,0.14
				c-0.11,0.09-0.16,0.2-0.16,0.31c0,0.12,0.04,0.23,0.12,0.33c0.11,0.14,0.42,0.43,0.96,0.89c0.5,0.42,0.8,0.68,0.91,0.79
				c0.26,0.27,0.45,0.53,0.56,0.77c0.11,0.25,0.17,0.51,0.17,0.8c0,0.57-0.19,1.03-0.58,1.4c-0.39,0.37-0.9,0.55-1.52,0.55
				c-0.49,0-0.91-0.12-1.28-0.36c-0.36-0.24-0.67-0.62-0.93-1.14l1.1-0.67c0.33,0.61,0.71,0.92,1.14,0.92c0.22,0,0.41-0.07,0.57-0.2
				c0.15-0.13,0.23-0.28,0.23-0.46c0-0.16-0.06-0.31-0.17-0.47c-0.12-0.16-0.37-0.4-0.76-0.72c-0.75-0.61-1.23-1.09-1.45-1.42
				s-0.33-0.67-0.33-1c0-0.48,0.18-0.89,0.54-1.23c0.36-0.34,0.81-0.51,1.34-0.51c0.34,0,0.67,0.08,0.98,0.24
				C195.12,49.14,195.45,49.43,195.81,49.85z"/>
			<path class="st11" d="M202.33,48.74c0.97,0,1.8,0.35,2.5,1.06c0.7,0.71,1.05,1.57,1.05,2.59c0,1.01-0.34,1.86-1.03,2.56
				c-0.69,0.7-1.52,1.05-2.51,1.05c-1.03,0-1.88-0.36-2.57-1.08c-0.68-0.72-1.02-1.57-1.02-2.55c0-0.66,0.16-1.27,0.48-1.82
				c0.32-0.55,0.75-0.99,1.31-1.32C201.09,48.9,201.68,48.74,202.33,48.74z M202.31,50.03c-0.63,0-1.17,0.22-1.6,0.67
				c-0.43,0.44-0.65,1.01-0.65,1.69c0,0.76,0.27,1.37,0.82,1.81c0.42,0.35,0.91,0.52,1.46,0.52c0.62,0,1.15-0.23,1.58-0.68
				s0.65-1.01,0.65-1.67c0-0.66-0.22-1.21-0.66-1.67S202.94,50.03,202.31,50.03z"/>
			<path class="st11" d="M208.97,48.91h1.31v4.46c0,0.38,0.03,0.66,0.1,0.82c0.07,0.16,0.18,0.29,0.33,0.38
				c0.15,0.1,0.34,0.14,0.56,0.14c0.23,0,0.43-0.05,0.59-0.16c0.17-0.11,0.28-0.24,0.34-0.41s0.1-0.48,0.1-0.94v-4.3h1.31v4.12
				c0,0.69-0.04,1.18-0.12,1.45c-0.08,0.27-0.23,0.53-0.45,0.78c-0.22,0.25-0.47,0.44-0.76,0.56s-0.62,0.18-1,0.18
				c-0.5,0-0.93-0.12-1.3-0.34c-0.37-0.23-0.63-0.52-0.79-0.86c-0.16-0.35-0.24-0.93-0.24-1.75V48.91z"/>
			<path class="st11" d="M217.12,48.91h1.38c0.76,0,1.3,0.07,1.62,0.2c0.32,0.14,0.58,0.36,0.78,0.68c0.2,0.32,0.29,0.69,0.29,1.12
				c0,0.45-0.11,0.83-0.32,1.14s-0.54,0.54-0.98,0.69l1.62,3.07h-1.43l-1.54-2.92h-0.12v2.92h-1.3V48.91z M218.43,51.61h0.41
				c0.42,0,0.7-0.05,0.86-0.17c0.16-0.11,0.23-0.29,0.23-0.55c0-0.15-0.04-0.28-0.12-0.39s-0.18-0.19-0.31-0.24
				s-0.37-0.07-0.72-0.07h-0.36V51.61z"/>
			<path class="st11" d="M230.78,50.13L229.87,51c-0.62-0.66-1.32-0.99-2.1-0.99c-0.66,0-1.21,0.22-1.66,0.68s-0.67,1.01-0.67,1.67
				c0,0.46,0.1,0.87,0.3,1.23c0.2,0.36,0.48,0.64,0.84,0.84c0.36,0.2,0.77,0.3,1.21,0.3c0.38,0,0.72-0.07,1.04-0.21
				c0.31-0.14,0.66-0.4,1.03-0.78l0.88,0.93c-0.51,0.5-0.98,0.84-1.44,1.04c-0.45,0.19-0.96,0.29-1.54,0.29
				c-1.07,0-1.94-0.34-2.62-1.02c-0.68-0.68-1.02-1.55-1.02-2.62c0-0.69,0.16-1.3,0.46-1.83c0.31-0.54,0.75-0.97,1.33-1.29
				c0.58-0.33,1.2-0.49,1.86-0.49c0.57,0,1.11,0.12,1.63,0.36C229.95,49.34,230.4,49.68,230.78,50.13z"/>
			<path class="st11" d="M233.84,48.91h3.74v1.29h-2.45v1.25h2.45v1.26h-2.45v1.82h2.45v1.29h-3.74V48.91z"/>
			<path class="st11" d="M245.31,48.91h3.4v1.28h-2.11v1.25h2.11v1.26h-2.11v3.11h-1.3V48.91z"/>
			<path class="st11" d="M255.02,48.74c0.97,0,1.8,0.35,2.5,1.06c0.7,0.71,1.05,1.57,1.05,2.59c0,1.01-0.34,1.86-1.03,2.56
				c-0.69,0.7-1.52,1.05-2.51,1.05c-1.03,0-1.88-0.36-2.57-1.08c-0.68-0.72-1.02-1.57-1.02-2.55c0-0.66,0.16-1.27,0.48-1.82
				c0.32-0.55,0.75-0.99,1.31-1.32C253.78,48.9,254.38,48.74,255.02,48.74z M255,50.03c-0.63,0-1.17,0.22-1.6,0.67
				c-0.43,0.44-0.65,1.01-0.65,1.69c0,0.76,0.27,1.37,0.82,1.81c0.42,0.35,0.91,0.52,1.46,0.52c0.62,0,1.15-0.23,1.58-0.68
				s0.65-1.01,0.65-1.67c0-0.66-0.22-1.21-0.66-1.67S255.63,50.03,255,50.03z"/>
			<path class="st11" d="M261.79,48.91h1.38c0.76,0,1.3,0.07,1.62,0.2c0.32,0.14,0.58,0.36,0.78,0.68c0.2,0.32,0.29,0.69,0.29,1.12
				c0,0.45-0.11,0.83-0.32,1.14s-0.54,0.54-0.98,0.69l1.62,3.07h-1.43l-1.54-2.92h-0.12v2.92h-1.3V48.91z M263.1,51.61h0.41
				c0.42,0,0.7-0.05,0.86-0.17c0.16-0.11,0.23-0.29,0.23-0.55c0-0.15-0.04-0.28-0.12-0.39s-0.18-0.19-0.31-0.24
				s-0.37-0.07-0.72-0.07h-0.36V51.61z"/>
			<path class="st11" d="M273.74,48.91h3.74v1.29h-2.45v1.25h2.45v1.26h-2.45v1.82h2.45v1.29h-3.74V48.91z"/>
			<path class="st11" d="M280.09,48.91h1.34l1.72,4.9l1.75-4.9h1.34l-2.47,6.9h-1.26L280.09,48.91z"/>
			<path class="st11" d="M289.2,48.91h3.74v1.29h-2.45v1.25h2.45v1.26h-2.45v1.82h2.45v1.29h-3.74V48.91z"/>
			<path class="st11" d="M296.16,48.91h1.38c0.76,0,1.3,0.07,1.62,0.2c0.32,0.14,0.58,0.36,0.78,0.68c0.2,0.32,0.29,0.69,0.29,1.12
				c0,0.45-0.11,0.83-0.32,1.14s-0.54,0.54-0.98,0.69l1.62,3.07h-1.43l-1.54-2.92h-0.12v2.92h-1.3V48.91z M297.46,51.61h0.41
				c0.42,0,0.7-0.05,0.86-0.17c0.16-0.11,0.23-0.29,0.23-0.55c0-0.15-0.04-0.28-0.12-0.39s-0.18-0.19-0.31-0.24
				s-0.37-0.07-0.72-0.07h-0.36V51.61z"/>
			<path class="st11" d="M303.03,48.91h1.4l1.28,2.48l1.27-2.48h1.38l-2.01,3.91v2.99h-1.31v-2.99L303.03,48.91z"/>
			<path class="st11" d="M315.94,48.91h3.4v1.28h-2.11v1.25h2.11v1.26h-2.11v3.11h-1.3V48.91z"/>
			<path class="st11" d="M322.32,48.91h1.3v6.9h-1.3V48.91z"/>
			<path class="st11" d="M326.55,48.91h1.47l1.44,2.22l1.44-2.22h1.47l-2.18,3.35l2.31,3.56h-1.47l-1.58-2.43l-1.58,2.43h-1.48
				l2.32-3.56L326.55,48.91z"/>
		</g>
	</g>
</g>
<g id="TEXTS">
</g>
</svg>
