<?xml version="1.0" encoding="utf-8"?>
<!-- Generator: Adobe Illustrator 27.3.1, SVG Export Plug-In . SVG Version: 6.00 Build 0)  -->
<svg version="1.1" xmlns="http://www.w3.org/2000/svg" xmlns:xlink="http://www.w3.org/1999/xlink" x="0px" y="0px"
	 viewBox="0 0 436.23 290.4" style="enable-background:new 0 0 436.23 290.4;" xml:space="preserve">
<style type="text/css">
	.st0{opacity:0.8;fill:url(#SVGID_1_);}
	.st1{fill:#5365C6;}
	.st2{fill:none;stroke:#00142B;stroke-width:3.1847;stroke-miterlimit:10;}
	.st3{fill:#00142B;}
	.st4{fill:none;}
	.st5{display:none;fill:#DDB91D;}
	.st6{display:none;fill:#FFC736;}
	.st7{fill:#FFC736;}
	.st8{fill:#2D4FA1;}
	.st9{fill:#242524;}
	.st10{fill:#DD9A05;}
	.st11{fill:#3B3B3B;}
	.st12{fill:#FFFFFF;}
	.st13{fill:#F2A306;}
	.st14{display:none;fill:#2D4FA1;}
	.st15{display:none;fill:#FFFFFF;}
	.st16{display:none;fill:#DD9A05;}
</style>
<g id="BACKGROUND">
</g>
<g id="OBJECTS">
	<g>
		<g>
			<path class="st8" d="M156.47,115.51l-7.87,6.75c-2.63-6.48-4.08-13.56-4.08-20.97c0-1.63,0.07-3.24,0.21-4.83
				c4.41-1.84,9.69-0.74,12.95,3.06C161.76,104.26,161.21,111.44,156.47,115.51z"/>
			<g>
				<polygon class="st8" points="264.99,15.64 262.73,13.01 246.42,31.59 				"/>
				<path class="st8" d="M151.37,79.13c0,0,11.03,6.96,13.32,9.63l-8.85-10.31L151.37,79.13z"/>
				<path class="st8" d="M186.42,97.89l-7.8,6.7c-0.4,0.34-0.69,0.79-0.83,1.27c-0.06,0.16-4.94,15.55-18,26.76l-3.49,3
					c-0.57-0.73-1.11-1.47-1.63-2.23l3.33-2.86c12.36-10.61,17.12-25.34,17.16-25.48c0.32-1,0.88-1.88,1.67-2.55l5.7-4.9l1.02-3.05
					L186.42,97.89z"/>
				<path class="st8" d="M258.43,4.85L238.3,22.13l-9.4,10.65l-8.33,9.43l-5.72,4.91l-30.66,26.32l-4.18-4.87l-9.72,6.34l-6.1-7.11
					l-9.87,8.48c0,0-1.66,0.24-4.37,0.96c-2.54,5.32-4.26,11.1-5.01,17.18c4.93-1.64,10.57-0.26,14.14,3.9
					c4.74,5.52,4.09,13.84-1.43,18.57l-8.31,7.13c1.47,3.3,3.26,6.44,5.33,9.37l3.33-2.86c12.36-10.61,17.12-25.34,17.16-25.48
					c0.32-1,0.88-1.88,1.67-2.55l5.7-4.9l1.02-3.05l2.87,3.34l-7.8,6.7c-0.4,0.34-0.69,0.79-0.83,1.27
					c-0.06,0.16-4.94,15.55-18,26.76l-3.49,3c0.57,0.73,1.15,1.44,1.74,2.14l3.55-3.05c13.85-11.9,18.81-28.05,18.81-28.05
					l9.87-8.47l-18.26-21.27l13.34,12.87l6.56-7.36l-6.57-7.65l4.72,3.32l35.3-30.31l22.52-14.5l20.13-17.28L258.43,4.85z
					 M164.45,88.5c-0.09-0.1-0.18-0.19-0.29-0.29c-0.1-0.1-0.21-0.2-0.33-0.31c-0.35-0.31-0.76-0.66-1.22-1.02
					c-1.52-1.22-3.54-2.64-5.44-3.94c-0.3-0.21-0.6-0.41-0.9-0.61c-2.55-1.72-4.71-3.08-4.9-3.2c-0.01-0.01-0.01-0.01-0.01-0.01
					l3.97-0.59l0.51-0.08h0.01L160.6,84l3.85,4.49l0.12,0.13L164.45,88.5z M246.46,31.55l-0.04,0.03l5.2-5.91l11.12-12.65l2.25,2.62
					L246.46,31.55z"/>
			</g>
		</g>
		<path class="st8" d="M200.52,163.3c0.92,0,1.84-0.02,2.75-0.07l-12.6,10.82c-5.13-2.79-10.05-6.08-14.73-9.83l4.82-4.14
			C186.96,162.17,193.61,163.3,200.52,163.3z"/>
		<path class="st9" d="M250.83,122.41l-39.39,33.81c-3.59,0.72-7.24,1.08-10.92,1.08c-4.96,0-9.76-0.65-14.34-1.87l53.54-45.97
			c3.55-3.05,8.96-2.63,12.03,0.94C254.81,113.96,254.38,119.36,250.83,122.41z"/>
		<path class="st9" d="M337.43,64.9l-27.2,23.35l-19.9-10.98l-7.86-21.35l27.21-23.35c-14.08-5.01-30.37-2.55-42.51,7.87
			C253.73,51.98,249.16,70,254.11,85.92L177,152.12c2.18,1.01,4.43,1.88,6.74,2.61l54.6-46.87c4.45-3.83,11.18-3.31,15.01,1.16
			c3.83,4.45,3.33,11.19-1.12,15.01L216,155.13c0.02-0.01,0.05-0.01,0.07-0.02l4.49-1.3l2.25,3.85l50.07-42.98
			c-14.02-9.11-16.41-22.36-16.52-23.02c1.61,3.31,3.66,6.52,6.19,9.46c4.03,4.7,8.86,8.31,14.13,10.8
			c0.16,0.09,0.35,0.18,0.52,0.25c0.32,0.14,0.64,0.29,0.96,0.43c0.14,0.07,0.3,0.13,0.44,0.19c0.36,0.16,0.72,0.29,1.07,0.44
			c0.12,0.04,0.25,0.09,0.37,0.13c0.4,0.14,0.77,0.29,1.17,0.42c0.1,0.02,0.19,0.06,0.31,0.1c0.39,0.13,0.82,0.27,1.23,0.39
			c0.07,0.02,0.16,0.06,0.25,0.07c0.43,0.14,0.87,0.26,1.31,0.38c13.19,3.43,27.78,0.56,38.91-8.99
			C335.36,95.3,340.25,79.57,337.43,64.9z M255.76,70.87c0.59-10.54,5.4-20.61,13.72-27.75c9.06-7.78,21.19-10.96,32.8-8.86
			c-8.78-0.04-24.2,5.22-30.96,11.02C263.45,52.04,257.87,60.18,255.76,70.87z M323.23,101.28c-0.87,0.97-1.79,1.95-2.8,2.79
			c-0.97,0.89-1.98,1.76-3.09,2.51c-4.31,3.12-9.33,5.33-14.59,6.33c-5.26,0.97-10.74,0.96-15.92-0.32
			c-5.16-1.27-10.05-3.64-14.03-6.98c4.65,2.35,9.49,4,14.47,4.82c0.62,0.13,1.26,0.14,1.87,0.23c0.63,0.05,1.25,0.15,1.86,0.19
			l1.89,0.08l0.95,0.03l0.92-0.04c0.63-0.04,1.25-0.04,1.88-0.05c0.62-0.03,1.24-0.12,1.86-0.18c0.62-0.08,1.24-0.08,1.87-0.23
			l1.84-0.32c0.62-0.09,1.22-0.24,1.82-0.39l1.8-0.47c0.6-0.17,1.21-0.38,1.79-0.58c0.59-0.23,1.19-0.38,1.76-0.65
			c1.15-0.48,2.34-0.89,3.42-1.51l1.68-0.85c0.55-0.3,1.1-0.64,1.63-0.96c0.52-0.33,1.12-0.62,1.6-1c0.52-0.37,1.03-0.75,1.55-1.09
			c1.06-0.71,2.04-1.52,3.01-2.35c1.93-1.66,3.72-3.5,5.43-5.48C326.52,97.14,324.97,99.28,323.23,101.28z"/>
		<path class="st10" d="M235.2,190.7l0.12,7.47c-8.85,2.37-7.64,2.05-16.49,4.42l-7.03-12.64c-4.91-8.85-17.64-8.85-22.55,0
			l-7.03,12.64c-8.85-2.37-7.64-2.05-16.49-4.42l0.24-14.46c0.16-10.12-10.86-16.48-19.54-11.28l-12.4,7.44
			c-6.48-6.48-5.6-5.6-12.08-12.08l7.44-12.4c5.2-8.68-1.16-19.7-11.28-19.54l-14.46,0.24c-2.37-8.85-2.05-7.64-4.42-16.49
			l12.64-7.03c8.85-4.91,8.85-17.64,0-22.55l-12.64-7.03c2.37-8.85,2.05-7.64,4.42-16.49l14.46,0.24
			c10.12,0.16,16.48-10.86,11.28-19.54l-7.44-12.4c6.48-6.48,5.6-5.6,12.08-12.08l12.4,7.44c8.68,5.2,19.7-1.16,19.54-11.28
			l-0.24-14.46c8.85-2.37,7.64-2.05,16.49-4.42l7.03,12.64c4.91,8.85,17.64,8.85,22.55,0L218.83,0c8.85,2.37,7.64,2.05,16.49,4.42
			l-0.18,11.11l-15.57,19.23l0.01,0.13l-4.86,6.04c-4.56-1.07-9.31-1.64-14.2-1.64c-26.64,0-49.36,16.8-58.13,40.39
			c-2.2,5.92-3.53,12.28-3.81,18.9c-0.04,0.9-0.06,1.8-0.06,2.71c0,23.98,13.6,44.77,33.51,55.09c2.08,1.08,4.23,2.04,6.44,2.88
			c0.75,0.29,1.52,0.56,2.29,0.82c6.2,2.09,12.85,3.22,19.76,3.22c0.92,0,1.84-0.02,2.75-0.07c1.21-0.04,2.4-0.13,3.59-0.25
			c3.73-0.38,7.37-1.1,10.88-2.11l0.45,0.76l17,29.04L235.2,190.7z"/>
	</g>
	<g>
		<path class="st8" d="M12.07,221.03h6.85v25.65c0,4.08-0.3,6.95-0.9,8.59c-0.6,1.65-1.59,2.96-2.97,3.93
			c-1.38,0.97-3.04,1.46-4.97,1.46c-3.95,0-7.31-1.87-10.09-5.6l4.92-4.97c1.09,1.33,2.01,2.23,2.78,2.68
			c0.76,0.46,1.5,0.68,2.22,0.68c0.73,0,1.28-0.33,1.63-1s0.54-2.13,0.54-4.39V221.03z"/>
		<path class="st8" d="M45.95,231.09h6.65v28.59h-6.65v-3.02c-1.3,1.33-2.6,2.29-3.91,2.88s-2.72,0.88-4.25,0.88
			c-3.42,0-6.39-1.43-8.89-4.3c-2.5-2.86-3.75-6.42-3.75-10.68c0-4.41,1.21-8.03,3.63-10.85c2.42-2.82,5.36-4.23,8.81-4.23
			c1.59,0,3.08,0.33,4.48,0.97c1.4,0.65,2.69,1.62,3.87,2.92V231.09z M38.95,236.98c-2.06,0-3.77,0.78-5.13,2.35
			c-1.36,1.57-2.04,3.58-2.04,6.03c0,2.47,0.69,4.5,2.08,6.1c1.38,1.59,3.09,2.39,5.11,2.39c2.09,0,3.82-0.78,5.2-2.35
			c1.38-1.57,2.06-3.62,2.06-6.16c0-2.49-0.69-4.5-2.06-6.04C42.8,237.75,41.06,236.98,38.95,236.98z"/>
		<path class="st8" d="M78.9,220.06h6.65v39.63H78.9v-3.02c-1.3,1.33-2.6,2.29-3.91,2.88s-2.72,0.88-4.25,0.88
			c-3.42,0-6.39-1.43-8.89-4.3c-2.5-2.86-3.75-6.42-3.75-10.68c0-4.41,1.21-8.03,3.63-10.85c2.42-2.82,5.36-4.23,8.81-4.23
			c1.59,0,3.08,0.33,4.48,0.97c1.4,0.65,2.69,1.62,3.87,2.92V220.06z M71.91,236.98c-2.06,0-3.77,0.78-5.13,2.35
			c-1.36,1.57-2.04,3.58-2.04,6.03c0,2.47,0.69,4.5,2.08,6.1c1.38,1.59,3.09,2.39,5.11,2.39c2.09,0,3.82-0.78,5.2-2.35
			c1.38-1.57,2.06-3.62,2.06-6.16c0-2.49-0.69-4.5-2.06-6.04C75.76,237.75,74.01,236.98,71.91,236.98z"/>
		<path class="st8" d="M118.85,247.46H97.48c0.31,2.03,1.13,3.65,2.47,4.85c1.34,1.2,3.05,1.8,5.13,1.8c2.49,0,4.62-0.94,6.41-2.81
			l5.61,2.84c-1.4,2.14-3.07,3.72-5.02,4.74c-1.95,1.03-4.27,1.54-6.95,1.54c-4.16,0-7.55-1.41-10.17-4.24s-3.92-6.37-3.92-10.63
			c0-4.36,1.3-7.98,3.91-10.87s5.88-4.32,9.81-4.32c4.18,0,7.57,1.44,10.19,4.32c2.62,2.88,3.92,6.69,3.92,11.42L118.85,247.46z
			 M112.2,241.81c-0.44-1.59-1.31-2.89-2.6-3.89c-1.29-1-2.79-1.5-4.5-1.5c-1.86,0-3.48,0.56-4.88,1.68
			c-0.88,0.7-1.69,1.94-2.44,3.71H112.2z"/>
		<path class="st8" d="M150.81,247.46h-21.38c0.31,2.03,1.13,3.65,2.47,4.85c1.34,1.2,3.05,1.8,5.13,1.8c2.49,0,4.62-0.94,6.41-2.81
			l5.61,2.84c-1.4,2.14-3.07,3.72-5.02,4.74c-1.95,1.03-4.27,1.54-6.95,1.54c-4.16,0-7.55-1.41-10.17-4.24S123,249.8,123,245.55
			c0-4.36,1.3-7.98,3.91-10.87s5.88-4.32,9.81-4.32c4.18,0,7.57,1.44,10.19,4.32c2.62,2.88,3.92,6.69,3.92,11.42L150.81,247.46z
			 M144.16,241.81c-0.44-1.59-1.31-2.89-2.6-3.89c-1.29-1-2.79-1.5-4.5-1.5c-1.86,0-3.48,0.56-4.88,1.68
			c-0.88,0.7-1.69,1.94-2.44,3.71H144.16z"/>
		<path class="st8" d="M175.77,220.06h6.65v39.63h-6.65v-3.02c-1.3,1.33-2.6,2.29-3.91,2.88c-1.31,0.59-2.72,0.88-4.25,0.88
			c-3.42,0-6.39-1.43-8.89-4.3c-2.5-2.86-3.75-6.42-3.75-10.68c0-4.41,1.21-8.03,3.63-10.85c2.42-2.82,5.36-4.23,8.81-4.23
			c1.59,0,3.08,0.33,4.48,0.97c1.4,0.65,2.69,1.62,3.87,2.92V220.06z M168.78,236.98c-2.06,0-3.77,0.78-5.13,2.35
			c-1.36,1.57-2.04,3.58-2.04,6.03c0,2.47,0.69,4.5,2.08,6.1c1.38,1.59,3.09,2.39,5.11,2.39c2.09,0,3.82-0.78,5.2-2.35
			c1.38-1.57,2.07-3.62,2.07-6.16c0-2.49-0.69-4.5-2.07-6.04C172.62,237.75,170.88,236.98,168.78,236.98z"/>
		<path class="st10" d="M201.13,221.03h6.71l5.18,24.67l6.4-24.67h5.68l6.5,24.67l5.13-24.67h6.71l-8.08,38.66h-6.55l-6.61-24.99
			l-6.48,24.99h-6.48L201.13,221.03z"/>
		<path class="st10" d="M260.5,230.36c2.5,0,4.85,0.67,7.06,2.02c2.2,1.35,3.92,3.18,5.16,5.49c1.23,2.31,1.85,4.81,1.85,7.49
			c0,2.7-0.62,5.22-1.86,7.57c-1.24,2.35-2.94,4.18-5.08,5.51c-2.14,1.32-4.51,1.98-7.09,1.98c-3.8,0-7.05-1.46-9.74-4.38
			s-4.03-6.46-4.03-10.63c0-4.47,1.52-8.19,4.56-11.17C253.97,231.65,257.04,230.36,260.5,230.36z M260.61,237.11
			c-2.07,0-3.79,0.78-5.16,2.33c-1.38,1.55-2.06,3.53-2.06,5.95c0,2.49,0.68,4.5,2.04,6.04c1.36,1.54,3.08,2.31,5.16,2.31
			c2.08,0,3.82-0.78,5.2-2.34c1.38-1.56,2.08-3.57,2.08-6.02c0-2.45-0.68-4.44-2.04-5.98S262.72,237.11,260.61,237.11z"/>
		<path class="st10" d="M278.44,231.09h5.7v3.6c0.62-1.42,1.44-2.5,2.46-3.23c1.02-0.74,2.14-1.1,3.36-1.1
			c0.86,0,1.76,0.25,2.71,0.74l-2.07,6.18c-0.78-0.42-1.42-0.63-1.93-0.63c-1.02,0-1.89,0.68-2.6,2.05
			c-0.71,1.37-1.06,4.05-1.06,8.04l0.02,1.39v11.56h-6.61V231.09z"/>
		<path class="st10" d="M296.01,220.06h6.65v22.82l9.8-11.79h8.36l-11.42,13.7l12.79,14.89h-8.26l-11.26-13.18v13.18h-6.65V220.06z"
			/>
		<path class="st10" d="M341.16,235.09l-4.12,4.44c-1.67-1.79-3.19-2.68-4.56-2.68c-0.75,0-1.33,0.17-1.75,0.51
			c-0.42,0.34-0.63,0.77-0.63,1.27c0,0.39,0.13,0.74,0.4,1.06c0.27,0.32,0.93,0.77,1.99,1.33l2.44,1.31
			c2.57,1.37,4.33,2.76,5.29,4.18c0.96,1.42,1.44,3.08,1.44,4.99c0,2.54-0.87,4.66-2.6,6.36c-1.73,1.7-4.05,2.55-6.96,2.55
			c-3.87,0-6.96-1.63-9.26-4.89l4.09-4.81c0.78,0.98,1.69,1.77,2.74,2.38s1.98,0.91,2.79,0.91c0.88,0,1.58-0.23,2.12-0.68
			c0.54-0.46,0.8-0.98,0.8-1.58c0-1.1-0.97-2.18-2.9-3.23l-2.24-1.21c-4.29-2.33-6.44-5.25-6.44-8.75c0-2.26,0.81-4.19,2.43-5.79
			c1.62-1.6,3.68-2.41,6.2-2.41c1.72,0,3.34,0.41,4.86,1.22C338.81,232.39,340.1,233.56,341.16,235.09z"/>
		<path class="st10" d="M346.91,220.06h6.61v13.93c1.3-1.21,2.61-2.12,3.92-2.72s2.65-0.91,4-0.91c2.63,0,4.85,0.98,6.65,2.94
			c1.54,1.7,2.32,4.2,2.32,7.49v18.89h-6.56v-12.54c0-3.31-0.15-5.55-0.44-6.73c-0.29-1.17-0.79-2.05-1.5-2.63
			c-0.71-0.58-1.58-0.87-2.62-0.87c-1.35,0-2.51,0.48-3.47,1.45s-1.64,2.28-2.01,3.94c-0.2,0.86-0.29,2.82-0.29,5.89v11.48h-6.61
			V220.06z"/>
		<path class="st10" d="M389.3,230.36c2.5,0,4.85,0.67,7.06,2.02c2.2,1.35,3.92,3.18,5.16,5.49c1.23,2.31,1.85,4.81,1.85,7.49
			c0,2.7-0.62,5.22-1.86,7.57c-1.24,2.35-2.94,4.18-5.08,5.51c-2.14,1.32-4.51,1.98-7.09,1.98c-3.8,0-7.05-1.46-9.74-4.38
			s-4.03-6.46-4.03-10.63c0-4.47,1.52-8.19,4.56-11.17C382.77,231.65,385.84,230.36,389.3,230.36z M389.41,237.11
			c-2.07,0-3.79,0.78-5.16,2.33c-1.38,1.55-2.06,3.53-2.06,5.95c0,2.49,0.68,4.5,2.04,6.04c1.36,1.54,3.08,2.31,5.16,2.31
			c2.08,0,3.82-0.78,5.2-2.34c1.38-1.56,2.08-3.57,2.08-6.02c0-2.45-0.68-4.44-2.04-5.98S391.52,237.11,389.41,237.11z"/>
		<path class="st10" d="M415.4,231.09v3.15c1.2-1.3,2.5-2.27,3.9-2.92c1.4-0.65,2.89-0.97,4.49-0.97c3.46,0,6.4,1.41,8.82,4.23
			c2.42,2.82,3.63,6.44,3.63,10.85c0,4.26-1.25,7.82-3.75,10.68c-2.5,2.86-5.47,4.3-8.9,4.3c-1.53,0-2.95-0.29-4.27-0.88
			s-2.62-1.55-3.92-2.88v13.48h-6.61v-39.05H415.4z M422.4,236.98c-2.1,0-3.83,0.77-5.22,2.31c-1.38,1.54-2.07,3.56-2.07,6.04
			c0,2.54,0.69,4.59,2.07,6.16c1.38,1.57,3.12,2.35,5.22,2.35c2.03,0,3.74-0.8,5.13-2.39c1.39-1.59,2.08-3.63,2.08-6.1
			c0-2.45-0.68-4.46-2.05-6.03C426.2,237.76,424.48,236.98,422.4,236.98z"/>
	</g>
	<g>
		<g>
			<path class="st11" d="M1.61,276.94h2.47l2.25,4.37l2.24-4.37h2.44l-3.53,6.89v5.26H5.16v-5.26L1.61,276.94z"/>
			<path class="st11" d="M21.95,276.64c1.71,0,3.18,0.62,4.41,1.87c1.23,1.24,1.84,2.76,1.84,4.55c0,1.77-0.61,3.27-1.82,4.5
				c-1.21,1.23-2.68,1.84-4.41,1.84c-1.81,0-3.32-0.63-4.52-1.89s-1.8-2.76-1.8-4.49c0-1.16,0.28-2.23,0.84-3.21s1.33-1.75,2.3-2.32
				C19.77,276.92,20.82,276.64,21.95,276.64z M21.93,278.9c-1.12,0-2.06,0.39-2.82,1.17c-0.76,0.78-1.14,1.78-1.14,2.98
				c0,1.34,0.48,2.41,1.44,3.19c0.75,0.61,1.6,0.92,2.56,0.92c1.09,0,2.02-0.4,2.78-1.19c0.77-0.79,1.15-1.77,1.15-2.93
				c0-1.16-0.39-2.14-1.16-2.94C23.97,279.3,23.03,278.9,21.93,278.9z"/>
			<path class="st11" d="M33.64,276.94h2.31v7.86c0,0.68,0.06,1.16,0.18,1.44c0.12,0.28,0.31,0.5,0.58,0.67s0.6,0.25,0.98,0.25
				c0.41,0,0.75-0.09,1.05-0.28c0.29-0.19,0.5-0.42,0.61-0.71c0.11-0.29,0.17-0.84,0.17-1.66v-7.57h2.31v7.24
				c0,1.22-0.07,2.07-0.21,2.54s-0.4,0.93-0.78,1.37s-0.83,0.77-1.33,0.98c-0.5,0.21-1.09,0.32-1.76,0.32
				c-0.88,0-1.64-0.2-2.29-0.61c-0.65-0.4-1.11-0.91-1.39-1.52s-0.42-1.64-0.42-3.09V276.94z"/>
			<path class="st11" d="M48,276.94h2.43c1.33,0,2.28,0.12,2.85,0.36c0.57,0.24,1.02,0.64,1.37,1.19c0.34,0.56,0.52,1.21,0.52,1.97
				c0,0.8-0.19,1.47-0.57,2c-0.38,0.54-0.95,0.94-1.72,1.22l2.86,5.4h-2.51l-2.71-5.15H50.3v5.15H48V276.94z M50.3,281.69h0.72
				c0.73,0,1.23-0.1,1.51-0.29s0.41-0.51,0.41-0.96c0-0.26-0.07-0.5-0.2-0.69s-0.32-0.34-0.55-0.42c-0.23-0.09-0.65-0.13-1.26-0.13
				H50.3V281.69z"/>
			<path class="st11" d="M74.72,276.64c1.71,0,3.18,0.62,4.41,1.87c1.23,1.24,1.84,2.76,1.84,4.55c0,1.77-0.61,3.27-1.82,4.5
				c-1.21,1.23-2.68,1.84-4.41,1.84c-1.81,0-3.32-0.63-4.52-1.89s-1.8-2.76-1.8-4.49c0-1.16,0.28-2.23,0.84-3.21s1.33-1.75,2.3-2.32
				C72.54,276.92,73.59,276.64,74.72,276.64z M74.69,278.9c-1.12,0-2.06,0.39-2.82,1.17c-0.76,0.78-1.14,1.78-1.14,2.98
				c0,1.34,0.48,2.41,1.44,3.19c0.75,0.61,1.6,0.92,2.56,0.92c1.09,0,2.02-0.4,2.78-1.19c0.77-0.79,1.15-1.77,1.15-2.93
				c0-1.16-0.39-2.14-1.16-2.94C76.74,279.3,75.8,278.9,74.69,278.9z"/>
			<path class="st11" d="M86.5,276.94h2.2l5.17,8v-8h2.3v12.15h-2.21l-5.16-7.97v7.97h-2.3V276.94z"/>
			<path class="st11" d="M102.3,276.94h6.59v2.26h-4.31v2.2h4.31v2.22h-4.31v3.2h4.31v2.27h-6.59V276.94z"/>
			<path class="st11" d="M114.46,283.57h4.17v2.1h-4.17V283.57z"/>
			<path class="st11" d="M131.14,278.59l-1.7,1.51c-0.6-0.84-1.21-1.26-1.83-1.26c-0.3,0-0.55,0.08-0.74,0.24
				c-0.19,0.16-0.29,0.35-0.29,0.55s0.07,0.4,0.21,0.58c0.19,0.24,0.75,0.76,1.68,1.56c0.88,0.74,1.41,1.2,1.6,1.4
				c0.46,0.47,0.8,0.93,0.99,1.36s0.29,0.9,0.29,1.42c0,1-0.34,1.82-1.03,2.47c-0.68,0.65-1.58,0.97-2.68,0.97
				c-0.86,0-1.61-0.21-2.25-0.64c-0.64-0.42-1.18-1.09-1.64-2l1.93-1.17c0.58,1.07,1.25,1.61,2,1.61c0.39,0,0.73-0.12,0.99-0.35
				c0.27-0.23,0.4-0.5,0.4-0.8c0-0.28-0.1-0.55-0.3-0.83c-0.2-0.28-0.65-0.7-1.34-1.26c-1.32-1.08-2.16-1.91-2.55-2.5
				c-0.38-0.59-0.58-1.17-0.58-1.75c0-0.84,0.32-1.57,0.96-2.17c0.64-0.6,1.42-0.9,2.36-0.9c0.6,0,1.18,0.14,1.72,0.42
				C129.92,277.34,130.51,277.85,131.14,278.59z"/>
			<path class="st11" d="M135.72,276.94h6.67v2.28h-2.2v9.87h-2.33v-9.87h-2.14V276.94z"/>
			<path class="st11" d="M153.03,276.64c1.71,0,3.18,0.62,4.41,1.87c1.23,1.24,1.84,2.76,1.84,4.55c0,1.77-0.61,3.27-1.82,4.5
				c-1.21,1.23-2.68,1.84-4.41,1.84c-1.81,0-3.32-0.63-4.52-1.89s-1.8-2.76-1.8-4.49c0-1.16,0.28-2.23,0.84-3.21s1.33-1.75,2.3-2.32
				C150.85,276.92,151.9,276.64,153.03,276.64z M153,278.9c-1.12,0-2.06,0.39-2.82,1.17c-0.76,0.78-1.14,1.78-1.14,2.98
				c0,1.34,0.48,2.41,1.44,3.19c0.75,0.61,1.6,0.92,2.56,0.92c1.09,0,2.02-0.4,2.78-1.19c0.77-0.79,1.15-1.77,1.15-2.93
				c0-1.16-0.39-2.14-1.16-2.94C155.05,279.3,154.11,278.9,153,278.9z"/>
			<path class="st11" d="M164.8,276.94h2.44c1.32,0,2.27,0.12,2.85,0.37s1.04,0.64,1.38,1.19c0.34,0.55,0.5,1.21,0.5,1.97
				c0,0.85-0.22,1.55-0.66,2.11c-0.44,0.56-1.04,0.95-1.79,1.17c-0.44,0.13-1.25,0.19-2.42,0.19v5.15h-2.3V276.94z M167.09,281.69
				h0.73c0.57,0,0.97-0.04,1.2-0.12c0.22-0.08,0.4-0.22,0.53-0.41c0.13-0.19,0.19-0.42,0.19-0.69c0-0.47-0.18-0.81-0.54-1.03
				c-0.26-0.16-0.75-0.24-1.46-0.24h-0.65V281.69z"/>
			<path class="st11" d="M191.98,278.59l-1.7,1.51c-0.6-0.84-1.21-1.26-1.83-1.26c-0.3,0-0.55,0.08-0.74,0.24
				c-0.19,0.16-0.29,0.35-0.29,0.55s0.07,0.4,0.21,0.58c0.19,0.24,0.75,0.76,1.68,1.56c0.88,0.74,1.41,1.2,1.6,1.4
				c0.46,0.47,0.8,0.93,0.99,1.36s0.29,0.9,0.29,1.42c0,1-0.34,1.82-1.03,2.47c-0.68,0.65-1.58,0.97-2.68,0.97
				c-0.86,0-1.61-0.21-2.25-0.64c-0.64-0.42-1.18-1.09-1.64-2l1.93-1.17c0.58,1.07,1.25,1.61,2,1.61c0.39,0,0.73-0.12,0.99-0.35
				c0.27-0.23,0.4-0.5,0.4-0.8c0-0.28-0.1-0.55-0.3-0.83c-0.2-0.28-0.65-0.7-1.34-1.26c-1.32-1.08-2.16-1.91-2.55-2.5
				c-0.38-0.59-0.58-1.17-0.58-1.75c0-0.84,0.32-1.57,0.96-2.17c0.64-0.6,1.42-0.9,2.36-0.9c0.6,0,1.18,0.14,1.72,0.42
				C190.75,277.34,191.34,277.85,191.98,278.59z"/>
			<path class="st11" d="M203.44,276.64c1.71,0,3.18,0.62,4.41,1.87c1.23,1.24,1.84,2.76,1.84,4.55c0,1.77-0.61,3.27-1.82,4.5
				c-1.21,1.23-2.68,1.84-4.41,1.84c-1.81,0-3.32-0.63-4.52-1.89s-1.8-2.76-1.8-4.49c0-1.16,0.28-2.23,0.84-3.21s1.33-1.75,2.3-2.32
				C201.26,276.92,202.31,276.64,203.44,276.64z M203.42,278.9c-1.12,0-2.06,0.39-2.82,1.17c-0.76,0.78-1.14,1.78-1.14,2.98
				c0,1.34,0.48,2.41,1.44,3.19c0.75,0.61,1.6,0.92,2.56,0.92c1.09,0,2.02-0.4,2.78-1.19c0.77-0.79,1.15-1.77,1.15-2.93
				c0-1.16-0.39-2.14-1.16-2.94C205.46,279.3,204.52,278.9,203.42,278.9z"/>
			<path class="st11" d="M215.14,276.94h2.31v7.86c0,0.68,0.06,1.16,0.18,1.44c0.12,0.28,0.31,0.5,0.58,0.67s0.6,0.25,0.98,0.25
				c0.41,0,0.75-0.09,1.05-0.28c0.29-0.19,0.5-0.42,0.61-0.71c0.11-0.29,0.17-0.84,0.17-1.66v-7.57h2.31v7.24
				c0,1.22-0.07,2.07-0.21,2.54s-0.4,0.93-0.78,1.37s-0.83,0.77-1.33,0.98c-0.5,0.21-1.09,0.32-1.76,0.32
				c-0.88,0-1.64-0.2-2.29-0.61c-0.65-0.4-1.11-0.91-1.39-1.52s-0.42-1.64-0.42-3.09V276.94z"/>
			<path class="st11" d="M229.49,276.94h2.43c1.33,0,2.28,0.12,2.85,0.36c0.57,0.24,1.02,0.64,1.37,1.19
				c0.34,0.56,0.52,1.21,0.52,1.97c0,0.8-0.19,1.47-0.57,2c-0.38,0.54-0.95,0.94-1.72,1.22l2.86,5.4h-2.51l-2.71-5.15h-0.21v5.15
				h-2.3V276.94z M231.79,281.69h0.72c0.73,0,1.23-0.1,1.51-0.29s0.41-0.51,0.41-0.96c0-0.26-0.07-0.5-0.2-0.69
				c-0.14-0.2-0.32-0.34-0.55-0.42c-0.23-0.09-0.65-0.13-1.26-0.13h-0.63V281.69z"/>
			<path class="st11" d="M253.54,279.08l-1.61,1.54c-1.09-1.16-2.32-1.75-3.69-1.75c-1.15,0-2.12,0.4-2.92,1.19
				c-0.79,0.79-1.18,1.77-1.18,2.94c0,0.81,0.17,1.53,0.52,2.16c0.35,0.63,0.84,1.12,1.48,1.48s1.35,0.54,2.13,0.54
				c0.67,0,1.28-0.13,1.83-0.38c0.55-0.25,1.16-0.71,1.82-1.37l1.56,1.64c-0.89,0.88-1.73,1.48-2.53,1.82
				c-0.79,0.34-1.7,0.51-2.72,0.51c-1.88,0-3.41-0.6-4.61-1.8c-1.2-1.2-1.79-2.73-1.79-4.61c0-1.21,0.27-2.29,0.82-3.23
				c0.54-0.94,1.32-1.7,2.34-2.27c1.01-0.57,2.11-0.86,3.28-0.86c1,0,1.96,0.21,2.88,0.63C252.08,277.69,252.88,278.3,253.54,279.08
				z"/>
			<path class="st11" d="M258.92,276.94h6.59v2.26h-4.31v2.2h4.31v2.22h-4.31v3.2h4.31v2.27h-6.59V276.94z"/>
			<path class="st11" d="M279.11,276.94h5.99v2.25h-3.71v2.21h3.71v2.22h-3.71v5.47h-2.28V276.94z"/>
			<path class="st11" d="M296.21,276.64c1.71,0,3.18,0.62,4.41,1.87c1.23,1.24,1.84,2.76,1.84,4.55c0,1.77-0.61,3.27-1.82,4.5
				c-1.21,1.23-2.68,1.84-4.41,1.84c-1.81,0-3.32-0.63-4.52-1.89c-1.2-1.26-1.8-2.76-1.8-4.49c0-1.16,0.28-2.23,0.84-3.21
				s1.33-1.75,2.3-2.32C294.03,276.92,295.08,276.64,296.21,276.64z M296.18,278.9c-1.12,0-2.06,0.39-2.82,1.17
				c-0.76,0.78-1.14,1.78-1.14,2.98c0,1.34,0.48,2.41,1.44,3.19c0.75,0.61,1.6,0.92,2.56,0.92c1.09,0,2.02-0.4,2.78-1.19
				c0.77-0.79,1.15-1.77,1.15-2.93c0-1.16-0.39-2.14-1.16-2.94C298.23,279.3,297.29,278.9,296.18,278.9z"/>
			<path class="st11" d="M308.14,276.94h2.43c1.33,0,2.28,0.12,2.85,0.36c0.57,0.24,1.02,0.64,1.37,1.19
				c0.34,0.56,0.52,1.21,0.52,1.97c0,0.8-0.19,1.47-0.57,2c-0.38,0.54-0.95,0.94-1.72,1.22l2.86,5.4h-2.51l-2.71-5.15h-0.21v5.15
				h-2.3V276.94z M310.44,281.69h0.72c0.73,0,1.23-0.1,1.51-0.29s0.41-0.51,0.41-0.96c0-0.26-0.07-0.5-0.2-0.69
				c-0.14-0.2-0.32-0.34-0.55-0.42c-0.23-0.09-0.65-0.13-1.26-0.13h-0.63V281.69z"/>
			<path class="st11" d="M329.17,276.94h6.59v2.26h-4.31v2.2h4.31v2.22h-4.31v3.2h4.31v2.27h-6.59V276.94z"/>
			<path class="st11" d="M340.34,276.94h2.36l3.04,8.63l3.08-8.63h2.36l-4.35,12.15h-2.22L340.34,276.94z"/>
			<path class="st11" d="M356.4,276.94h6.59v2.26h-4.31v2.2h4.31v2.22h-4.31v3.2h4.31v2.27h-6.59V276.94z"/>
			<path class="st11" d="M368.64,276.94h2.43c1.33,0,2.28,0.12,2.85,0.36c0.57,0.24,1.02,0.64,1.37,1.19
				c0.34,0.56,0.52,1.21,0.52,1.97c0,0.8-0.19,1.47-0.57,2c-0.38,0.54-0.95,0.94-1.72,1.22l2.86,5.4h-2.51l-2.71-5.15h-0.21v5.15
				h-2.3V276.94z M370.94,281.69h0.72c0.73,0,1.23-0.1,1.51-0.29s0.41-0.51,0.41-0.96c0-0.26-0.07-0.5-0.2-0.69
				c-0.14-0.2-0.32-0.34-0.55-0.42c-0.23-0.09-0.65-0.13-1.26-0.13h-0.63V281.69z"/>
			<path class="st11" d="M380.74,276.94h2.47l2.25,4.37l2.24-4.37h2.44l-3.53,6.89v5.26h-2.31v-5.26L380.74,276.94z"/>
			<path class="st11" d="M403.48,276.94h5.99v2.25h-3.71v2.21h3.71v2.22h-3.71v5.47h-2.28V276.94z"/>
			<path class="st11" d="M414.71,276.94h2.28v12.15h-2.28V276.94z"/>
			<path class="st11" d="M422.15,276.94h2.58l2.54,3.9l2.54-3.9h2.58l-3.83,5.89l4.07,6.26h-2.59l-2.78-4.27l-2.78,4.27h-2.6
				l4.08-6.26L422.15,276.94z"/>
		</g>
	</g>
	<path class="st14" d="M168.81,105.2l-0.11,0.11c-4.89-1.33-10.04-2.04-15.36-2.04c-4.3,0-8.49,0.46-12.53,1.35
		c4.12-0.93,8.4-1.41,12.8-1.41C158.87,103.21,163.96,103.9,168.81,105.2z"/>
	<path class="st15" d="M212.1,161.81c0,8.26-1.71,16.13-4.8,23.26c-0.91,2.1-1.94,4.13-3.08,6.09c-3.52,6.07-8.1,11.45-13.49,15.89
		c-3.52,2.91-7.4,5.41-11.55,7.42c-4.23,2.08-8.75,3.65-13.48,4.65c-2.03,0.43-4.09,0.76-6.19,0.97c-0.49,0.05-0.99,0.09-1.48,0.13
		c-0.5,0.04-1,0.07-1.49,0.09c-0.97,0.05-1.95,0.08-2.93,0.08h-0.23c-0.42,0-0.84-0.01-1.26-0.02c-0.82-0.02-1.64-0.05-2.45-0.11
		c-0.32-0.02-0.63-0.04-0.94-0.07c-1.61-0.13-3.2-0.33-4.77-0.59c-1.99-0.33-3.95-0.76-5.86-1.29c-1.13-0.3-2.24-0.65-3.34-1.02
		c-17.67-6-31.55-20.2-37.11-38.07c-0.14-0.46-0.28-0.92-0.41-1.38c-0.14-0.46-0.27-0.93-0.38-1.4c-1.24-4.73-1.9-9.69-1.9-14.8
		c0-1.78,0.08-3.55,0.24-5.29c0.06-0.66,0.13-1.32,0.21-1.98c0.06-0.52,0.14-1.03,0.22-1.54c0.07-0.47,0.14-0.93,0.23-1.39
		c0.08-0.48,0.17-0.96,0.27-1.44c4.1-20.02,18.4-36.32,37.25-43.22c0.45-0.16,0.9-0.32,1.35-0.47c1.28-0.44,2.58-0.83,3.9-1.17
		c0.36-0.1,0.73-0.18,1.09-0.27c0.36-0.09,0.73-0.17,1.09-0.25c4.04-0.89,8.23-1.35,12.53-1.35c5.32,0,10.47,0.71,15.36,2.04
		l0.07-0.07c15.39,4.13,28.27,14.38,35.89,27.98c3.79,6.76,6.28,14.35,7.12,22.44c0.1,0.93,0.17,1.87,0.22,2.82l0.01,0.01
		C212.07,159.59,212.1,160.7,212.1,161.81z"/>
	<polygon class="st16" points="249.4,177.92 246.7,178.31 220.18,182.15 203.09,186.02 194.94,187.86 162.12,113.86 170.22,103.9 
		170.44,103.69 185.37,85.34 185.37,85.25 189.83,79.71 	"/>
</g>
<g id="TEXTS">
</g>
</svg>
